<?xml version="1.0" encoding="utf-8"?>
<!-- Generator: Adobe Illustrator 17.0.0, SVG Export Plug-In . SVG Version: 6.00 Build 0)  -->
<!DOCTYPE svg PUBLIC "-//W3C//DTD SVG 1.1//EN" "http://www.w3.org/Graphics/SVG/1.1/DTD/svg11.dtd">
<svg version="1.1" id="Calque_1" xmlns="http://www.w3.org/2000/svg" xmlns:xlink="http://www.w3.org/1999/xlink" x="0px" y="0px"
	 width="642.373px" height="158.475px" viewBox="0 0 642.373 158.475" style="enable-background:new 0 0 642.373 158.475;"
	 xml:space="preserve">
<style type="text/css">
	.st0{fill:#808080;}
	.st1{fill:#DB0E5C;}
	.st2{fill:#E9494A;}
	.st3{fill:#F7CA18;}
	.st4{fill:#5FBFBC;}
	.st5{fill:#A5D6CC;}
	.st6{fill:#DBD7D7;}
</style>
<path class="st0" d="M118.7,104.839l-2.268-1.738c-14.982-11.52-19.009-14.617-19.009-22.505c0-8.813,5.997-14.074,16.04-14.074
	c8.968,0,13.566,4.466,16.993,9.589c3.047-1.863,6.036-5.536,6.036-8.533c0-6.643-9.45-8.037-17.378-8.037
	c-22.768,0-35.053,15.785-35.053,30.637c0,10.445,7.501,15.96,15.444,21.799c2.076,1.528,4.223,3.106,6.226,4.777
	c5.657,4.664,8.296,9.456,8.296,15.071c0,10.507-7.006,16.78-18.74,16.78c-9.589,0-17.121-5.082-19.19-12.947
	c-0.216-0.856-0.347-1.661-0.397-2.438c-5.298,2.387-8.725,7.318-8.725,11.013c0,7.911,13.665,11.597,22.901,11.597
	c18.595,0,38.505-12.755,38.505-31.742C128.382,116.721,125.486,110.964,118.7,104.839z"/>
<path class="st0" d="M152.269,63.031c0.069,2.849-0.569,6.355-1.134,9.448c-0.43,2.357-0.836,4.584-0.836,6.03
	c0,1.433,0.907,2.161,2.7,2.161c0.572,0,1.226-0.079,1.943-0.231c6.448-1.333,6.448-1.333,11.304-8.829
	c3.236-4.979,4.292-6.974,4.847-9.095c0.075-0.394,0.071-0.688,0.071-1.08c-0.065-0.945-1.813-1.649-4.345-1.649
	c-5.04,0-10.072,0.832-14.659,2.416C152.225,62.454,152.269,62.729,152.269,63.031z"/>
<path class="st0" d="M162.054,139.134c-3.151,3.003-5.139,4.798-7.16,4.798c-2.897,0-2.897-4.274-2.897-6.827
	c0-3.729,0.883-10.837,1.89-15.211c0.518-2.441,1.782-7.051,3.119-11.932c0.562-2.047,1.14-4.152,1.685-6.183
	c0.601-2.179,0.969-4.134,1.326-6.024c0.399-2.207,0.051-3.814-1.095-5.049c-0.877-0.951-2.654-1.472-5.01-1.472
	c-2.925,0-6.293,0.631-10.033,1.88c0.762,1.634,1.137,3.382,1.137,5.296c0,2.47-0.216,4.803-0.64,6.933l-0.541,2.973
	c-0.781,4.359-1.85,10.327-3.538,16.311c-2.266,8.478-2.681,16.289-2.41,19.218c0.429,6.672,3.5,9.894,9.393,9.894
	c5.419,0,14.953-6.767,18.356-14.665c0.419-0.992,0.721-1.796,0.973-2.509h-0.858l-0.353-0.852
	C164.535,136.524,163.438,137.627,162.054,139.134z"/>
<path class="st0" d="M205.454,139.468c1.277-2.058,2.142-3.544,2.727-4.614c-1.304,0.919-2.94,2.135-4.465,3.27l-3.297,2.438
	c-3.175,2.271-6.444,3.37-10.006,3.37c-2.766,0-2.766-3.56-2.766-6.702c0-2.25,1.016-7.984,3.107-17.53
	c0.305-1.031,0.504-1.945,0.691-2.804l0.063-0.282L191.243,117l2.225-8.538c1.46-5.598,3.231-12.178,5.309-18.521
	c1.594-5.512,3.47-11.132,5.553-16.65c0.29-0.892,0.761-1.768,1.101-2.334c0.901-1.635,3.572-1.653,4.594-0.166
	c-0.076-0.85-0.175-1.401-0.22-1.655l-0.053-0.454c-0.038-0.112-0.219-0.441-0.531-0.756c-2.68-1.985-5.737-3.097-9.451-3.352
	c-1.28-0.097-3.14,0.024-5.041,1.327c-1.617,1.114-3.056,2.921-3.578,4.495c-6.137,20.384-11.419,39.986-15.685,58.218l-0.281,0.636
	l-0.18,1.523c-0.156,1.33-0.285,2.41-0.522,3.382l-0.051,0.358c-0.678,4.261-1.126,7.076-1.018,9.525
	c0.002,8.029,5.106,9.701,9.388,9.701C188.188,153.739,199.972,148.047,205.454,139.468z"/>
<path class="st0" d="M272.799,93.989c0-4.7-1.837-7.422-11.227-7.422c-0.453,0-1.158,0.029-1.919,0.083
	c1.046,2.144,1.744,4.85,1.744,6.598c0,5.774-2.449,13.173-7.081,21.399c-5.044,9.193-10.511,17.615-16.702,25.732l-2.98,3.909
	l0.207-4.911c0.118-2.805,0.118-5.49,0.118-8.287c0-7.579-0.205-21.796-1.585-31.854c-0.637-9.841-5.562-9.841-7.181-9.841
	c-3.474,0-7.268,1.125-11.301,3.349c2.04,2.793,3.177,7.703,4.712,16.581c2.349,13.721,3.962,30.476,3.833,39.841
	c0,1.102-0.069,2.364-0.137,3.565c-0.029,0.513-0.057,1.016-0.079,1.489c0.323,0.017,0.658,0.017,1.001,0.017
	c12.459,0,22.605-11.949,35.92-32.586C271.155,104.688,272.799,97.039,272.799,93.989z"/>
<path class="st0" d="M323.785,143.996c1.359-1.736,1.822-3.969,1.336-6.063c-6.631,5.902-13.184,8.908-20.986,9.678
	c-0.516,0.069-1.079,0.106-1.638,0.106c-4.49,0-8.82-2.401-11.582-6.42c-1.046-1.517-1.597-3.726-1.641-6.58l1.285-10.101
	c0.743-3.453,1.237-5.553,1.237-5.553c3.806-16.289,9.764-24.9,17.229-24.9c2.893,0,4.48,1.298,5.301,2.389
	c1.407,1.866,1.708,4.552,0.847,7.566c-1.41,4.97-3.998,9.186-12.036,13.584l-1.274,0.681c-3.897,2.07-6.711,3.565-8.387,7.206
	l-1.644,3.574c3.364-2.844,9.047-4.916,10.549-5.432c17.106-6.082,26.345-16.637,26.345-23.479c0.053-3.432-0.82-6.074-2.595-7.877
	c-2.188-2.222-5.878-3.35-10.963-3.35c-10.543,0-20.68,5.17-28.543,14.556c-8.194,8.902-12.522,20.985-11.923,33.205
	c0.557,11.579,7.85,17.449,21.67,17.449c6.711,0,12.847-1.32,18.761-4.036C318.776,148.654,321.755,146.514,323.785,143.996z"/>
<path class="st0" d="M386.87,132.921c-1.003,0.72-2.795,2.228-5.823,5.379l-1.152,0.971c-2.713,2.259-4.674,3.892-6.338,4.039
	c-0.841,0-1.468-0.246-1.911-0.714c-1.137-1.194-1.024-3.465-0.892-6.094l0.023-0.451c0.278-3.423,1.59-7.507,3.107-12.236
	c0.569-1.776,1.167-3.639,1.747-5.579c0.675-2.161,1.498-4.317,2.37-6.599c2.423-6.344,4.93-12.904,3.738-18.687
	c-0.604-2.786-2.441-4.034-5.953-4.034c-2.348,0-4.88,0.611-6.554,1.015c-15.364,2.674-22.854,2.364-25.449-1.028
	c-1.196-1.563-1.013-3.376-0.681-4.824c-2.099,1.323-4.591,4.606-5.245,8.233c-0.649,3.607,0.752,6.08,4.166,7.35l1.067,0.397
	l-0.063,1.137c-0.477,8.724-2.648,14.764-7.851,21.43c2.055,0.075,4.283-0.75,6.507-2.37c2.132-1.65,4.804-5.153,7.297-9.58
	c2.189-4.021,3.516-7.81,4.307-10.075l0.362-1.036h1.098c4.756,0,9.545-0.735,10.477-0.944c0.325-0.054,0.521-0.068,0.696-0.068
	c1.042,0,1.59,0.53,1.824,0.847c0.759,1.025,0.387,2.253-0.18,4.113l-0.152,0.503c-0.302,1.045-1.415,4.372-2.709,8.236
	c-1.809,5.404-4.06,12.13-4.776,14.704c-1.098,3.495-3.633,11.562-4.132,16.685c-0.394,3.273,0.152,5.757,1.625,7.416
	c1.875,2.117,4.994,2.561,7.28,2.561c6.014,0,16.286-7.955,19.987-15.476C385.972,135.506,386.583,133.889,386.87,132.921z"/>
<path class="st0" d="M488.757,119.393c-0.086-1.401-0.273-5.037-0.495-9.383c-0.414-8.067-0.981-19.114-1.221-21.91
	c-0.006-1.526-0.085-3.021-0.168-4.631c-0.1-1.936-0.208-4.033-0.208-6.31c-0.121-3.903-0.121-7.359-0.121-10.197
	c-0.314-6.773-3.201-7.083-4.149-7.185c-5.093-0.569-9.951,0.743-13.999,3.681c-3.968,7.206-8.07,14.043-11.694,20.082
	c-1.433,2.387-2.819,4.699-4.14,6.935c-12.678,21.228-23.873,40.078-32.524,55.85c-1.176,2.251-1.78,4.16-1.78,5.645
	c0,0.681,0,2.754,4.726,2.754c3.213,0,6.462-0.53,9.676-1.575c-0.503-4.301,1.227-8.576,2.644-12.077l0.708-1.486
	c1.44-3.021,3.074-6.444,4.622-8.65c1.292-2.479,2.728-4.268,6.323-6.136l0.335-0.174h0.377c6.418,0,13.098-0.125,19.85-0.37
	c1.594-0.002,3.228-0.168,4.742-1.378l2.245-1.794l0.26,2.863c0.181,2.004,0.331,3.998,0.48,5.988
	c0.346,4.599,0.702,9.355,1.468,14.047c1.243,9.216,4.498,10.545,6.838,10.747c4.505,0.391,8.851-0.587,12.692-2.814
	c-2.191-2.651-3.723-6.387-4.874-11.783C490.173,134.637,489.269,127.462,488.757,119.393z M473.044,116.898
	c-0.288,0.036-0.566,0.085-0.847,0.131c-0.728,0.124-1.474,0.246-2.413,0.246h-22.708l1.196-2.268
	c6.269-11.879,12.417-23.2,17.357-32.296l6.643-12.258l0.405,5.232c0.749,9.71,1.603,29.355,1.724,39.661l0.017,1.383
	L473.044,116.898z"/>
<path class="st0" d="M550.777,103.648c5.603-2.081,8.896-5.173,8.896-8.434c0-1.531,0-6.19-13.928-6.19
	c-21.115,0-40.345,21.923-40.345,45.995c0,12.93,6.725,19.215,20.561,19.215c9.844,0,28.671-6.002,28.671-15.409
	c0-0.432-0.024-0.832-0.074-1.209c-6.018,5.997-14.185,9.512-22.327,9.512c-6.817,0-10.887-5.768-10.887-15.429
	c0-22.232,7.881-37.17,19.611-37.17C546.894,94.528,549.271,97.974,550.777,103.648z"/>
<path class="st0" d="M603.492,95.52c-3.374,0.42-6.684,0.625-10.066,0.625h-7.024l0.356-1.84c1.83-9.461,2.585-15.044,2.834-16.88
	c0.018-0.14,0.041-0.306,0.077-0.482c-0.03-2.909-1.532-4.384-4.465-4.384c-3.587,0-7.214,1.021-11.325,3.201
	c0.773,2.145,0.948,4.015,0.948,6.065c0,7.6-3.03,20.775-5.571,30.489c-2.401,9.941-2.786,12.054-4.033,19.398
	c-0.374,2.681-0.71,5.071-0.71,7.359c0,9.839,4.034,14.422,12.698,14.422c7.603,0,19.2-11.626,20.139-19.783
	c-0.941,0.717-2.576,2.221-5.369,5.191c-4.348,4.572-6.237,5.158-7.398,5.158c-1.76,0-5.9-0.716-6.334-7.342
	c-0.003-4.542,1.087-10.173,2.02-13.646c1.439-5.45,2.838-11.476,4.401-18.954l0.196-0.944l0.933-0.239
	c2.395-0.613,4.32-0.299,5.988-0.237c0.867,0.03,1.757,0.063,2.997,0.063C599.41,102.76,602.982,99.715,603.492,95.52z"/>
<path class="st0" d="M639.814,66.592c0-3.485-1.597-4.842-5.697-4.842c-3.018,0-7.507,1.443-9.99,3.103
	c0.98,1.664,2.222,4.274,2.318,6.944c0.571,1.557,1.496,6.96-7.191,16.91c4.329-2.15,10.241-5.556,12.604-7.664
	C637.133,76.238,639.814,71.374,639.814,66.592z"/>
<path class="st1" d="M30.524,113.759c-4.591,9.621-6.534,19.258-7.337,24.978c9.22-1.052,28.626-4.779,42.07-17.88
	c8.6-8.381,14.164-16.52,16.328-23.365c-6.039,6.244-16.485,11.816-32.878,15.23C42.482,114.018,36.35,114.203,30.524,113.759z"/>
<path class="st2" d="M32.752,84.114c-2.982-1.954-5.848-4.248-8.561-6.811C13.724,83.157,5.861,91.276,1.726,96.12
	c8.343,4.066,26.711,11.347,45.088,7.521c8.29-1.727,15.238-4.165,20.554-7.066c-1.056,0.038-2.137,0.027-3.247-0.045
	C54.967,95.932,44.413,91.755,32.752,84.114z"/>
<path class="st3" d="M58.813,82.463c-6.315-6.48-11.391-16.415-15.083-29.529c-1.02-3.622-1.651-7.242-1.998-10.807
	c-11.977-3.648-23.883-3.491-30.464-2.971c2.377,6.915,7.744,19.645,17.586,29.744l0.001,0.001c2.808,2.882,5.829,5.389,8.981,7.455
	c10.161,6.658,19.457,10.433,26.889,10.917c0.049,0.003,0.103,0.002,0.152,0.005C62.781,86.022,60.743,84.444,58.813,82.463z"/>
<path class="st4" d="M63.528,38.204c1.713-7.279,4.734-13.826,8.282-19.572c-1.176-1.377-2.396-2.746-3.711-4.095
	c-4.121-4.229-8.148-7.485-11.049-9.625c-3.479,8.598-9.48,27.433-4.391,45.507c2.676,9.507,6.192,17.181,10.254,22.548
	C60.052,64.165,60.219,52.264,63.528,38.204z"/>
<path class="st5" d="M90.243,35.085c4.605-4.488,9.741-7.968,14.954-10.737c-1.547-9.183-4.608-17.013-6.755-21.706
	C91.234,8.48,76.859,22.052,72.557,40.33c-2.36,10.032-2.962,18.714-1.886,25.391C72.378,57.185,78.192,46.83,90.243,35.085z"/>
<path class="st6" d="M108.854,51.694c4.46-1.132,8.902-1.396,13.144-1.165c2.235-6.617,3.045-12.941,3.335-16.855
	c-6.567,0.995-20.336,4.243-29.421,14.519c-4.986,5.641-8.395,11.087-10.05,15.879C89.913,59.155,97.182,54.656,108.854,51.694z"/>
</svg>
